<mxfile host="Electron" modified="2023-10-23T20:18:45.301Z" agent="Mozilla/5.0 (Macintosh; Intel Mac OS X 10_15_7) AppleWebKit/537.36 (KHTML, like Gecko) draw.io/22.0.3 Chrome/114.0.5735.289 Electron/25.8.4 Safari/537.36" etag="ItqSYhXP1svW52djPDgk" version="22.0.3" type="device">
  <diagram name="Page-1" id="MDU4zzkmZFwZaLuamZVd">
    <mxGraphModel dx="1314" dy="924" grid="1" gridSize="10" guides="1" tooltips="1" connect="1" arrows="1" fold="1" page="1" pageScale="1" pageWidth="827" pageHeight="1169" math="0" shadow="0">
      <root>
        <mxCell id="0" />
        <mxCell id="1" parent="0" />
        <mxCell id="E-XLUzfwLiWo2k8OuGa1-10" style="edgeStyle=orthogonalEdgeStyle;rounded=0;orthogonalLoop=1;jettySize=auto;html=1;entryX=0.5;entryY=0;entryDx=0;entryDy=0;endArrow=none;endFill=0;" edge="1" parent="1" source="E-XLUzfwLiWo2k8OuGa1-1" target="E-XLUzfwLiWo2k8OuGa1-3">
          <mxGeometry relative="1" as="geometry" />
        </mxCell>
        <mxCell id="E-XLUzfwLiWo2k8OuGa1-33" value="0..*" style="edgeLabel;html=1;align=center;verticalAlign=middle;resizable=0;points=[];" vertex="1" connectable="0" parent="E-XLUzfwLiWo2k8OuGa1-10">
          <mxGeometry x="0.82" y="4" relative="1" as="geometry">
            <mxPoint x="-24" y="8" as="offset" />
          </mxGeometry>
        </mxCell>
        <mxCell id="E-XLUzfwLiWo2k8OuGa1-34" value="mottar" style="edgeLabel;html=1;align=center;verticalAlign=middle;resizable=0;points=[];" vertex="1" connectable="0" parent="E-XLUzfwLiWo2k8OuGa1-10">
          <mxGeometry x="0.88" y="-1" relative="1" as="geometry">
            <mxPoint x="21" as="offset" />
          </mxGeometry>
        </mxCell>
        <mxCell id="E-XLUzfwLiWo2k8OuGa1-35" value="1..1" style="edgeLabel;html=1;align=center;verticalAlign=middle;resizable=0;points=[];" vertex="1" connectable="0" parent="E-XLUzfwLiWo2k8OuGa1-10">
          <mxGeometry x="-0.79" y="-3" relative="1" as="geometry">
            <mxPoint x="-17" y="-11" as="offset" />
          </mxGeometry>
        </mxCell>
        <mxCell id="E-XLUzfwLiWo2k8OuGa1-11" style="edgeStyle=orthogonalEdgeStyle;rounded=0;orthogonalLoop=1;jettySize=auto;html=1;entryX=0;entryY=0.5;entryDx=0;entryDy=0;endArrow=none;endFill=0;" edge="1" parent="1" source="E-XLUzfwLiWo2k8OuGa1-1" target="E-XLUzfwLiWo2k8OuGa1-4">
          <mxGeometry relative="1" as="geometry" />
        </mxCell>
        <mxCell id="E-XLUzfwLiWo2k8OuGa1-22" value="0..1" style="edgeLabel;html=1;align=center;verticalAlign=middle;resizable=0;points=[];" vertex="1" connectable="0" parent="E-XLUzfwLiWo2k8OuGa1-11">
          <mxGeometry x="-0.8286" relative="1" as="geometry">
            <mxPoint y="10" as="offset" />
          </mxGeometry>
        </mxCell>
        <mxCell id="E-XLUzfwLiWo2k8OuGa1-23" value="0..*" style="edgeLabel;html=1;align=center;verticalAlign=middle;resizable=0;points=[];" vertex="1" connectable="0" parent="E-XLUzfwLiWo2k8OuGa1-11">
          <mxGeometry x="0.7" y="-1" relative="1" as="geometry">
            <mxPoint x="5" y="9" as="offset" />
          </mxGeometry>
        </mxCell>
        <mxCell id="E-XLUzfwLiWo2k8OuGa1-24" value="utfÃ¸rer" style="edgeLabel;html=1;align=center;verticalAlign=middle;resizable=0;points=[];" vertex="1" connectable="0" parent="E-XLUzfwLiWo2k8OuGa1-11">
          <mxGeometry x="0.7429" y="3" relative="1" as="geometry">
            <mxPoint x="-2" y="-7" as="offset" />
          </mxGeometry>
        </mxCell>
        <mxCell id="E-XLUzfwLiWo2k8OuGa1-12" style="edgeStyle=orthogonalEdgeStyle;rounded=0;orthogonalLoop=1;jettySize=auto;html=1;entryX=0.5;entryY=0;entryDx=0;entryDy=0;exitX=0.75;exitY=1;exitDx=0;exitDy=0;endArrow=none;endFill=0;" edge="1" parent="1" source="E-XLUzfwLiWo2k8OuGa1-1" target="E-XLUzfwLiWo2k8OuGa1-6">
          <mxGeometry relative="1" as="geometry">
            <Array as="points">
              <mxPoint x="260" y="260" />
              <mxPoint x="390" y="260" />
            </Array>
          </mxGeometry>
        </mxCell>
        <mxCell id="E-XLUzfwLiWo2k8OuGa1-29" value="0..*" style="edgeLabel;html=1;align=center;verticalAlign=middle;resizable=0;points=[];" vertex="1" connectable="0" parent="E-XLUzfwLiWo2k8OuGa1-12">
          <mxGeometry x="0.8667" y="2" relative="1" as="geometry">
            <mxPoint x="-22" y="12" as="offset" />
          </mxGeometry>
        </mxCell>
        <mxCell id="E-XLUzfwLiWo2k8OuGa1-30" value="har" style="edgeLabel;html=1;align=center;verticalAlign=middle;resizable=0;points=[];" vertex="1" connectable="0" parent="E-XLUzfwLiWo2k8OuGa1-12">
          <mxGeometry x="0.9212" y="3" relative="1" as="geometry">
            <mxPoint x="17" y="3" as="offset" />
          </mxGeometry>
        </mxCell>
        <mxCell id="E-XLUzfwLiWo2k8OuGa1-31" value="0..*" style="edgeLabel;html=1;align=center;verticalAlign=middle;resizable=0;points=[];" vertex="1" connectable="0" parent="E-XLUzfwLiWo2k8OuGa1-12">
          <mxGeometry x="-0.9212" y="2" relative="1" as="geometry">
            <mxPoint x="8" y="-3" as="offset" />
          </mxGeometry>
        </mxCell>
        <mxCell id="E-XLUzfwLiWo2k8OuGa1-1" value="Vikarkandidat" style="rounded=0;whiteSpace=wrap;html=1;" vertex="1" parent="1">
          <mxGeometry x="170" y="140" width="120" height="60" as="geometry" />
        </mxCell>
        <mxCell id="E-XLUzfwLiWo2k8OuGa1-3" value="Sluttattest" style="rounded=0;whiteSpace=wrap;html=1;" vertex="1" parent="1">
          <mxGeometry x="170" y="400" width="120" height="60" as="geometry" />
        </mxCell>
        <mxCell id="E-XLUzfwLiWo2k8OuGa1-15" style="edgeStyle=orthogonalEdgeStyle;rounded=0;orthogonalLoop=1;jettySize=auto;html=1;entryX=0.5;entryY=1;entryDx=0;entryDy=0;endArrow=none;endFill=0;" edge="1" parent="1" source="E-XLUzfwLiWo2k8OuGa1-4" target="E-XLUzfwLiWo2k8OuGa1-3">
          <mxGeometry relative="1" as="geometry">
            <Array as="points">
              <mxPoint x="490" y="510" />
              <mxPoint x="230" y="510" />
            </Array>
          </mxGeometry>
        </mxCell>
        <mxCell id="E-XLUzfwLiWo2k8OuGa1-18" value="1..1" style="edgeLabel;html=1;align=center;verticalAlign=middle;resizable=0;points=[];" vertex="1" connectable="0" parent="E-XLUzfwLiWo2k8OuGa1-15">
          <mxGeometry x="0.8645" y="-1" relative="1" as="geometry">
            <mxPoint x="-21" y="-32" as="offset" />
          </mxGeometry>
        </mxCell>
        <mxCell id="E-XLUzfwLiWo2k8OuGa1-19" value="1..1" style="edgeLabel;html=1;align=center;verticalAlign=middle;resizable=0;points=[];" vertex="1" connectable="0" parent="E-XLUzfwLiWo2k8OuGa1-15">
          <mxGeometry x="-0.9355" y="-2" relative="1" as="geometry">
            <mxPoint x="-18" y="-10" as="offset" />
          </mxGeometry>
        </mxCell>
        <mxCell id="E-XLUzfwLiWo2k8OuGa1-28" value="genererer" style="edgeLabel;html=1;align=center;verticalAlign=middle;resizable=0;points=[];" vertex="1" connectable="0" parent="E-XLUzfwLiWo2k8OuGa1-15">
          <mxGeometry x="0.9516" y="-3" relative="1" as="geometry">
            <mxPoint x="27" y="-5" as="offset" />
          </mxGeometry>
        </mxCell>
        <mxCell id="E-XLUzfwLiWo2k8OuGa1-4" value="Oppdrag" style="rounded=0;whiteSpace=wrap;html=1;" vertex="1" parent="1">
          <mxGeometry x="430" y="140" width="120" height="60" as="geometry" />
        </mxCell>
        <mxCell id="E-XLUzfwLiWo2k8OuGa1-5" value="Jobbhistorikk" style="rounded=0;whiteSpace=wrap;html=1;" vertex="1" parent="1">
          <mxGeometry x="10" y="400" width="120" height="60" as="geometry" />
        </mxCell>
        <mxCell id="E-XLUzfwLiWo2k8OuGa1-6" value="Kvalifikasjon" style="rounded=0;whiteSpace=wrap;html=1;" vertex="1" parent="1">
          <mxGeometry x="330" y="400" width="120" height="60" as="geometry" />
        </mxCell>
        <mxCell id="E-XLUzfwLiWo2k8OuGa1-13" style="edgeStyle=orthogonalEdgeStyle;rounded=0;orthogonalLoop=1;jettySize=auto;html=1;entryX=1;entryY=0.5;entryDx=0;entryDy=0;exitX=0.5;exitY=0;exitDx=0;exitDy=0;endArrow=none;endFill=0;" edge="1" parent="1" source="E-XLUzfwLiWo2k8OuGa1-7" target="E-XLUzfwLiWo2k8OuGa1-4">
          <mxGeometry relative="1" as="geometry" />
        </mxCell>
        <mxCell id="E-XLUzfwLiWo2k8OuGa1-20" value="0..1" style="edgeLabel;html=1;align=center;verticalAlign=middle;resizable=0;points=[];" vertex="1" connectable="0" parent="E-XLUzfwLiWo2k8OuGa1-13">
          <mxGeometry x="0.8857" y="-2" relative="1" as="geometry">
            <mxPoint y="12" as="offset" />
          </mxGeometry>
        </mxCell>
        <mxCell id="E-XLUzfwLiWo2k8OuGa1-21" value="1..1" style="edgeLabel;html=1;align=center;verticalAlign=middle;resizable=0;points=[];" vertex="1" connectable="0" parent="E-XLUzfwLiWo2k8OuGa1-13">
          <mxGeometry x="-0.8952" relative="1" as="geometry">
            <mxPoint x="-20" as="offset" />
          </mxGeometry>
        </mxCell>
        <mxCell id="E-XLUzfwLiWo2k8OuGa1-27" value="utlyser" style="edgeLabel;html=1;align=center;verticalAlign=middle;resizable=0;points=[];" vertex="1" connectable="0" parent="E-XLUzfwLiWo2k8OuGa1-13">
          <mxGeometry x="0.8762" y="-2" relative="1" as="geometry">
            <mxPoint x="7" y="-8" as="offset" />
          </mxGeometry>
        </mxCell>
        <mxCell id="E-XLUzfwLiWo2k8OuGa1-7" value="Bedrift" style="rounded=0;whiteSpace=wrap;html=1;" vertex="1" parent="1">
          <mxGeometry x="590" y="280" width="120" height="60" as="geometry" />
        </mxCell>
        <mxCell id="E-XLUzfwLiWo2k8OuGa1-9" style="edgeStyle=orthogonalEdgeStyle;rounded=0;orthogonalLoop=1;jettySize=auto;html=1;entryX=0.5;entryY=0;entryDx=0;entryDy=0;endArrow=none;endFill=0;" edge="1" parent="1" source="E-XLUzfwLiWo2k8OuGa1-1" target="E-XLUzfwLiWo2k8OuGa1-5">
          <mxGeometry relative="1" as="geometry" />
        </mxCell>
        <mxCell id="E-XLUzfwLiWo2k8OuGa1-16" value="1..1" style="edgeLabel;html=1;align=center;verticalAlign=middle;resizable=0;points=[];" vertex="1" connectable="0" parent="E-XLUzfwLiWo2k8OuGa1-9">
          <mxGeometry x="0.8061" y="1" relative="1" as="geometry">
            <mxPoint x="-21" y="22" as="offset" />
          </mxGeometry>
        </mxCell>
        <mxCell id="E-XLUzfwLiWo2k8OuGa1-17" value="1..1" style="edgeLabel;html=1;align=center;verticalAlign=middle;resizable=0;points=[];" vertex="1" connectable="0" parent="E-XLUzfwLiWo2k8OuGa1-9">
          <mxGeometry x="-0.9273" y="-4" relative="1" as="geometry">
            <mxPoint y="-6" as="offset" />
          </mxGeometry>
        </mxCell>
        <mxCell id="E-XLUzfwLiWo2k8OuGa1-26" value="har" style="edgeLabel;html=1;align=center;verticalAlign=middle;resizable=0;points=[];" vertex="1" connectable="0" parent="E-XLUzfwLiWo2k8OuGa1-9">
          <mxGeometry x="0.8303" y="2" relative="1" as="geometry">
            <mxPoint x="18" y="18" as="offset" />
          </mxGeometry>
        </mxCell>
      </root>
    </mxGraphModel>
  </diagram>
</mxfile>
